. 
 
http://www.torrenting.com          :     Once & For all ;)


               www . Torrenting . Com 

(((((((((((((= Enjoy No RAR releases =))))))))))))))))))))


...................................NFO:....................................

.[img]http://img651.imageshack.us/img651/3540/5071695.jpg[/img]


[color=blue][size=5][b]Snow.Beast.2011.BDRip.XVID.AC3.HQ.Hive-CM8[/b][/size][/color]


[b]Thx Hive

CM8 Doing It Right The First Time :D


Source: Bluray

Video: 720x400 @bitrate 1700 2pass
Audio: English DTS to AC3 5.1 @384
Sample: Yes, included
Subs: Yes, English in srt /subs[/b]
 
http://www.imdb.com/title/tt1623765/


General
Complete name                  : Snow.Beast.2011.BDRip.XVID.AC3.HQ.Hive-CM8.avi
Format                         : AVI
Format/Info                    : Audio Video Interleave
File size                      : 1.32 GiB
Duration                       : 1h 30mn
Overall bit rate               : 2 091 Kbps
Writing application            : Nandub v1.0rc2
Writing library                : Nandub build 1853/release

Video
ID                             : 0
Format                         : MPEG-4 Visual
Format profile                 : Advanced Simple@L5
Format settings, BVOP          : 1
Format settings, QPel          : Yes
Format settings, GMC           : No warppoints
Format settings, Matrix        : Default (H.263)
Muxing mode                    : Packed bitstream
Codec ID                       : XVID
Codec ID/Hint                  : XviD
Duration                       : 1h 30mn
Bit rate                       : 1 697 Kbps
Width                          : 720 pixels
Height                         : 400 pixels
Display aspect ratio           : 16:9
Frame rate                     : 23.976 fps
Color space                    : YUV
Chroma subsampling             : 4:2:0
Bit depth                      : 8 bits
Scan type                      : Progressive
Compression mode               : Lossy
Bits/(Pixel*Frame)             : 0.246
Stream size                    : 1.07 GiB (81%)
Writing library                : XviD 1.2.1 (UTC 2008-12-04)

Audio
ID                             : 1
Format                         : AC-3
Format/Info                    : Audio Coding 3
Mode extension                 : CM (complete main)
Codec ID                       : 2000
Duration                       : 1h 30mn
Bit rate mode                  : Constant
Bit rate                       : 384 Kbps
Channel(s)                     : 6 channels
Channel positions              : Front: L C R, Side: L R, LFE
Sampling rate                  : 48.0 KHz
Bit depth                      : 16 bits
Compression mode               : Lossy
Stream size                    : 249 MiB (18%)
Alignment                      : Split accross interleaves
Interleave, duration           : 42 ms (1.00 video frame)
Interleave, preload duration   : 500 ms


Plot:
Several researchers head up to Canada to complete their study on lynxes.
Something strange is afoot however as all of the animals in the area
have begun to disappear -- including people!


Cast:
John Schneider      ...    Jim Harwood
Jason London        ...    Barry
Danielle Chuchran   ...    Emmy Harwood
Kari Hawker         ...    Marci


[img]http://img703.imageshack.us/img703/7900/62357041.png[/img]
[img]http://img707.imageshack.us/img707/7986/snsn.png[/img]
[img]http://img805.imageshack.us/img805/3323/snsnsn.png[/img]
[img]http://img38.imageshack.us/img38/2387/ssnnsnsn.png[/img]
[img]http://img713.imageshack.us/img713/8954/ssnnsnsnsn.png[/img]
[img]http://img815.imageshack.us/img815/520/ssnnsnssnnsn.png[/img]
[img]http://img823.imageshack.us/img823/387/ssnsnnsnssnnsn.png[/img]



Greetz

ViSiON,SPK,SceneLovers,PRESTiGE,SANTi,3LT0N,YanKeeS,MAGNET,THC,T0XiC,LKRG,Feel-Free,FLAWL3SS,
WBZ,BHRG,SiC,26K,NOVA,D2U,SeToNeUp,Rapeseed,SAFC,goldadvance,KaN1vE,Unevano,Pinnz,Wayne
Mr Hive,and most P2P groups
Great Work Guys :D

LOOKING FOR ANYTHING YOU WANT TO LOOK AND SOUND BETTER

CM8@hushmail.com